<svg width="131" height="61" viewBox="0 0 131 61" fill="none" xmlns="http://www.w3.org/2000/svg">
<path d="M30.0711 30.5453C29.8941 39.8271 22.7897 46.539 14.8818 51.1097C11.0025 53.3518 7.11497 54.9656 4.18543 56.0199C3.60333 56.2294 3.06063 56.4163 2.56511 56.5811L3.57808 3.47711C4.06695 3.66074 4.60213 3.86819 5.17582 4.09979C8.06301 5.26532 11.8862 7.02652 15.6771 9.41533C23.4049 14.2849 30.2482 21.2635 30.0711 30.5453Z" stroke="#FFA76E" stroke-width="5"/>
<ellipse cx="65.608" cy="30.2871" rx="29.4654" ry="30" fill="#FFA76E"/>
<path d="M98.7529 30.6398C98.2694 9.50315 128.83 0.216066 128.83 0.216066L130.189 59.6533C130.189 59.6533 99.2363 51.7765 98.7529 30.6398Z" fill="#FFA76E"/>
</svg>
